<?xml version="1.0" encoding="UTF-8"?>
<svg width="96px" height="96px" viewBox="0 0 96 96" version="1.1" xmlns="http://www.w3.org/2000/svg" xmlns:xlink="http://www.w3.org/1999/xlink">
    <!-- Generator: Sketch 50 (54983) - http://www.bohemiancoding.com/sketch -->
    <title>Artboard-vector</title>
    <desc>Created with Sketch.</desc>
    <defs></defs>
    <g id="Artboard" stroke="none" stroke-width="1" fill="none" fill-rule="evenodd">
        <g id="Fill-6" transform="translate(8.000000, 2.000000)" fill="#009688">
            <path d="M71.331,33.545 L36.466,52.935 L31.12,28.957 L45.613,13.217 L52.755,17.342 L59.844,36.548 L64.921,33.685 L60.548,21.84 L71.331,28.069 L71.331,33.545 Z M71.331,51.053 L67.23,39.942 L71.331,37.662 L71.331,51.053 Z M55.617,73.34 L38.079,56.154 L62.142,42.771 L70.297,64.863 L55.617,73.34 Z M42.679,80.808 L39.627,67.114 L34.91,62.476 L39.251,81.945 L15.918,68.475 L31.945,59.564 L29.273,56.937 L12.29,66.381 L8.631,64.267 L8.631,53.379 L18.823,42.311 L52.383,75.206 L42.679,80.808 Z M8.631,32.323 L14.71,38.283 L8.631,44.887 L8.631,32.323 Z M25.116,18.55 L32.217,50.403 L21.262,39.666 L25.696,34.848 L24.303,27.867 L17.149,35.635 L9.134,27.779 L25.116,18.55 Z M39.982,9.967 L40.507,10.27 L29.596,22.12 L28.378,16.665 L39.982,9.967 Z M0,23.084 L0,69.252 L39.982,92.333 L79.96,69.252 L79.96,23.084 L39.982,0 L0,23.084 Z"></path>
        </g>
    </g>
</svg>